<?xml version="1.0" standalone="no"?>
<!DOCTYPE svg PUBLIC "-//W3C//DTD SVG 20010904//EN"
 "http://www.w3.org/TR/2001/REC-SVG-20010904/DTD/svg10.dtd">
<svg version="1.0" xmlns="http://www.w3.org/2000/svg"
 width="823.000000pt" height="267.000000pt" viewBox="0 0 823.000000 267.000000"
 preserveAspectRatio="xMidYMid meet">

<g transform="translate(0.000000,267.000000) scale(0.100000,-0.100000)"
fill="#000000" stroke="none">
<path d="M0 2259 l0 -407 355 -347 c195 -191 355 -350 355 -354 0 -3 -157 -71
-348 -150 -191 -79 -350 -147 -355 -151 -4 -3 -6 -169 -5 -367 l3 -361 594
274 c327 151 597 274 601 274 3 0 157 -146 341 -324 l334 -324 3 234 2 234 23
-5 c12 -4 173 -48 357 -99 l335 -93 3 346 c1 189 -1 348 -5 351 -5 4 -291 80
-638 170 -346 89 -639 166 -650 170 -26 9 -84 -6 654 175 349 85 636 156 638
158 2 2 2 171 1 375 l-3 371 -364 -120 c-201 -65 -366 -119 -368 -119 -2 0 -3
111 -3 248 l0 247 -335 -340 -334 -340 0 -297 c-1 -164 -4 -298 -8 -297 -5 0
-242 254 -528 565 -286 310 -550 596 -587 636 l-67 73 -1 -406z m1830 7 l0
-314 -277 -263 c-153 -144 -290 -274 -305 -288 l-28 -25 0 299 0 298 302 304
c166 166 303 303 305 303 2 0 3 -141 3 -314z m-1211 -318 l571 -618 -2 -296
-3 -296 -577 567 -578 566 0 350 c0 210 4 349 9 347 5 -1 266 -281 580 -620z
m1949 75 l-3 -337 -645 -158 c-354 -86 -645 -156 -647 -155 -1 2 130 128 292
282 l295 278 0 101 0 101 343 112 c188 61 348 112 355 112 10 1 12 -70 10
-336z m-683 -878 c352 -91 650 -170 663 -175 l22 -10 0 -310 c0 -241 -3 -310
-12 -310 -7 0 -310 83 -673 183 l-660 183 -3 302 c-2 235 0 302 10 302 7 0
301 -74 653 -165z m-924 -234 c118 -115 212 -211 209 -214 -10 -9 -1117 -517
-1128 -517 -9 0 -12 83 -12 320 0 294 1 321 18 331 25 15 675 288 688 288 6 1
107 -93 225 -208z m600 -331 c140 -39 262 -73 272 -76 15 -5 17 -24 17 -206
l0 -200 -37 33 c-104 91 -545 530 -527 525 12 -4 135 -38 275 -76z"/>
<path d="M3581 2508 c27 -73 71 -191 97 -261 l47 -128 39 3 39 3 93 250 c51
138 93 254 94 258 0 5 -16 7 -36 5 l-36 -3 -76 -203 c-41 -112 -78 -200 -82
-195 -4 4 -40 97 -80 206 l-72 197 -38 0 -38 0 49 -132z"/>
<path d="M4060 2380 l0 -260 35 0 35 0 0 260 0 260 -35 0 -35 0 0 -260z"/>
<path d="M4382 2588 c-11 -29 -54 -143 -96 -252 -42 -110 -76 -203 -76 -208 0
-4 16 -8 34 -8 33 0 36 3 57 60 l22 60 118 0 118 0 22 -60 c21 -59 22 -60 60
-60 l39 0 -15 38 c-8 20 -53 136 -99 257 l-83 220 -41 3 -40 3 -20 -53z m107
-163 c22 -61 41 -114 41 -118 0 -4 -40 -7 -90 -7 -49 0 -90 2 -90 4 0 6 81
220 87 229 7 12 5 15 52 -108z"/>
<path d="M4920 2475 c0 -90 5 -187 11 -215 23 -108 117 -164 243 -145 61 10
105 41 136 95 24 43 25 54 28 238 l4 192 -36 0 -36 0 0 -152 c-1 -189 -8 -231
-49 -271 -26 -27 -38 -31 -84 -31 -30 -1 -66 6 -81 14 -53 28 -61 58 -64 258
l-4 182 -34 0 -34 0 0 -165z"/>
<path d="M5870 2595 c0 -33 2 -35 35 -35 33 0 35 2 35 35 0 33 -2 35 -35 35
-33 0 -35 -2 -35 -35z"/>
<path d="M7440 2595 c0 -34 1 -35 40 -35 39 0 40 1 40 35 0 34 -1 35 -40 35
-39 0 -40 -1 -40 -35z"/>
<path d="M7647 2583 c-4 -3 -7 -26 -7 -50 0 -41 -1 -43 -30 -43 -27 0 -30 -3
-30 -30 0 -27 3 -30 30 -30 l30 0 1 -107 c0 -170 21 -203 127 -203 l52 0 0 35
c0 35 0 35 -45 35 -40 0 -47 3 -56 27 -5 14 -8 67 -7 117 l3 91 53 3 c50 3 52
4 52 32 0 28 -2 29 -52 32 l-53 3 -3 48 c-3 44 -5 47 -31 47 -15 0 -31 -3 -34
-7z"/>
<path d="M5553 2481 c-35 -16 -42 -17 -47 -5 -3 8 -19 14 -36 14 l-30 0 0
-185 0 -185 35 0 35 0 0 138 0 138 35 17 c50 24 107 22 131 -4 16 -18 20 -40
22 -155 l4 -134 34 0 34 0 0 128 c0 149 -10 192 -51 226 -38 32 -104 35 -166
7z"/>
<path d="M6495 2486 c-112 -48 -140 -233 -51 -322 69 -69 182 -71 248 -4 48
48 50 70 5 70 -21 0 -36 -7 -44 -20 -7 -10 -30 -24 -51 -31 -54 -16 -107 7
-127 55 -8 20 -15 40 -15 46 0 6 50 10 140 10 l140 0 0 38 c0 51 -37 122 -79
149 -39 27 -117 31 -166 9z m146 -75 c16 -16 29 -39 29 -50 0 -20 -5 -21 -104
-21 l-105 0 11 30 c25 73 115 94 169 41z"/>
<path d="M7124 2486 c-41 -18 -64 -52 -64 -96 0 -66 30 -87 149 -110 63 -12
81 -24 81 -55 0 -34 -31 -55 -81 -55 -44 0 -89 26 -89 50 0 6 -16 10 -35 10
-39 0 -42 -8 -20 -50 40 -77 204 -92 271 -25 34 34 34 106 1 139 -21 21 -99
46 -145 46 -30 0 -62 29 -62 56 0 19 8 28 36 40 45 19 87 11 113 -22 13 -16
29 -24 50 -24 36 0 36 1 15 45 -9 19 -30 40 -49 49 -40 19 -129 20 -171 2z"/>
<path d="M5870 2305 l0 -185 35 0 35 0 0 185 0 185 -35 0 -35 0 0 -185z"/>
<path d="M6013 2458 c7 -18 40 -102 73 -185 l59 -153 36 0 36 0 66 168 c36 92
69 175 72 185 6 14 1 17 -28 17 l-35 0 -53 -135 c-28 -74 -55 -135 -58 -135
-3 0 -29 60 -57 133 l-51 132 -37 3 -37 3 14 -33z"/>
<path d="M6820 2305 l0 -185 35 0 35 0 0 139 0 139 28 10 c15 6 44 14 65 18
33 5 37 10 37 35 0 27 -3 29 -35 29 -20 0 -49 -7 -65 -15 -25 -13 -29 -13 -34
0 -3 9 -18 15 -36 15 l-30 0 0 -185z"/>
<path d="M7440 2305 l0 -185 35 0 35 0 0 185 0 185 -35 0 -35 0 0 -185z"/>
<path d="M7869 2443 c11 -27 44 -108 75 -182 31 -73 56 -139 56 -146 0 -6 -11
-39 -25 -73 -14 -34 -25 -64 -25 -67 0 -11 68 -4 73 8 3 6 46 118 97 247 51
129 95 241 97 248 4 10 -4 13 -32 10 l-37 -3 -52 -132 c-28 -73 -54 -133 -57
-133 -3 0 -30 61 -60 135 l-54 135 -37 0 -38 0 19 -47z"/>
<path d="M3711 1883 c-95 -34 -151 -128 -151 -254 0 -121 43 -200 135 -245 48
-23 64 -26 123 -22 108 8 178 56 202 138 8 29 8 30 -28 30 -30 0 -40 -5 -54
-29 -44 -78 -166 -95 -239 -34 -91 77 -92 249 0 325 67 57 192 42 233 -28 16
-28 26 -34 54 -34 41 0 44 18 13 69 -29 48 -56 68 -113 86 -62 19 -118 18
-175 -2z"/>
<path d="M4520 1630 l0 -260 35 0 35 0 0 260 0 260 -35 0 -35 0 0 -260z"/>
<path d="M4700 1630 l0 -260 35 0 35 0 0 260 0 260 -35 0 -35 0 0 -260z"/>
<path d="M4195 1739 c-39 -11 -84 -53 -101 -95 -22 -53 -18 -143 9 -195 42
-82 152 -112 243 -68 73 35 106 117 90 224 -16 106 -127 168 -241 134z m134
-80 c43 -40 53 -110 26 -175 -31 -74 -143 -81 -185 -11 -37 60 -23 153 30 194
26 21 103 16 129 -8z"/>
<path d="M4969 1741 c-87 -28 -123 -89 -117 -201 3 -66 7 -82 32 -114 38 -50
85 -69 158 -64 67 5 104 27 131 79 l17 34 -32 3 c-22 3 -36 -2 -47 -16 -48
-60 -149 -53 -179 13 -25 54 -24 55 124 55 l136 0 -4 60 c-4 63 -23 98 -69
132 -28 21 -111 31 -150 19z m122 -80 c16 -16 29 -39 29 -50 0 -20 -5 -21
-100 -21 -115 0 -124 8 -66 66 45 45 95 47 137 5z"/>
<path d="M5344 1731 c-59 -27 -86 -76 -91 -165 -4 -60 -1 -78 19 -116 13 -25
37 -53 56 -63 42 -24 117 -26 160 -3 l32 17 0 -40 c0 -72 -79 -113 -149 -76
-16 8 -31 21 -34 30 -4 10 -19 15 -42 15 -33 0 -36 -2 -29 -22 20 -64 76 -98
162 -98 59 0 110 25 139 69 22 33 23 42 23 247 l0 214 -30 0 c-20 0 -30 -5
-30 -15 0 -19 2 -19 -45 5 -49 25 -88 25 -141 1z m146 -66 l30 -16 0 -95 0
-95 -37 -15 c-48 -20 -99 -12 -132 21 -23 22 -26 34 -26 91 0 61 2 67 33 95
37 33 85 38 132 14z"/>
<path d="M5785 1736 c-48 -18 -93 -68 -101 -113 -4 -18 -4 -63 -2 -98 4 -69
21 -101 71 -139 32 -24 121 -33 171 -16 40 13 86 62 86 91 0 26 -54 26 -72 1
-52 -74 -188 -40 -188 47 0 20 5 21 136 21 l136 0 -4 60 c-4 63 -23 98 -69
132 -33 25 -114 32 -164 14z m136 -75 c16 -16 29 -39 29 -50 0 -20 -5 -21
-100 -21 -107 0 -112 3 -86 49 32 57 111 68 157 22z"/>
</g>
</svg>
